<?xml version="1.0" encoding="utf-8"?>
<!-- Generator: Adobe Illustrator 27.0.0, SVG Export Plug-In . SVG Version: 6.00 Build 0)  -->
<svg version="1.1" id="Capa_1" xmlns="http://www.w3.org/2000/svg" xmlns:xlink="http://www.w3.org/1999/xlink" x="0px" y="0px"
	 viewBox="0 0 433.9 58.4" style="enable-background:new 0 0 433.9 58.4;" xml:space="preserve">
<style type="text/css">
	.st0{fill-rule:evenodd;clip-rule:evenodd;fill:#E53517;}
</style>
<g>
	<path class="st0" d="M186.8,49.4h-28.2c0-0.8,1.3-1.4,1.3-8.7V18c0-7-1.3-7.9-1.3-8.6h15.3c0,0.6-1.1,1.9-1.1,8.8v23
		c2,0.3,3.9,0.5,5.9,0.5c7.4,0,8.1-1.2,9.1-1.2L186.8,49.4L186.8,49.4z M277.5,9.8c-0.9,1.9-1.3,3.8-1.3,8.5v24.9
		c0.1,4.4,1.3,5.9,1.3,6.5h-9.3c-2-0.8-4.1-3.3-6.9-6.3c-2.3-2.5-13.1-14.8-13.1-14.8H248c0,0,0,11.7,0,11.9c-3.3,0.4-6.5,1-9.7,1.9
		V18.2c0-7-1.3-7.9-1.3-8.7h11.3l18.2,21.9V18.2c0-7-1.3-7.9-1.3-8.7h12.3V9.8L277.5,9.8z M433.9,30.9c0,13.7-10.1,24.5-26.9,24.5
		c-13,0-17.2-5.7-33.4-5.7h-6.7c0-0.8,1.3-1.4,1.3-8.7V18.2c0-7-1.3-7.9-1.3-8.6h15.5c0,0.5-1.3,2.3-1.3,8.8v24.4
		c9.7,0,13.8,2.9,22.3,2.9c11.8,0,17.4-6.5,17.4-15.6c0-7.8-4-13.7-11.1-13.7h-4.5v24.8c-4.3,0.2-9.2-0.4-12.9-1.7V18.2
		c0-7-1.3-7.9-1.3-8.6h18.1C424.3,9.6,433.9,18.8,433.9,30.9L433.9,30.9z M363.1,41.3l-1,8.3h-27.4c0-0.8,1.3-1.4,1.3-8.7V18.2
		c0-7-1.3-7.9-1.3-8.7h26.7l1,8.1c-0.6,0-2.3-1.3-8.3-1.3h-5.2v9.4h1.1c6.4,0,8-0.6,8.7-0.6v8.3c-0.5,0-2.4-0.8-8.6-0.8h-1.2v9.4
		c1.8,0.3,3.5,0.4,5.3,0.4C362,42.5,361.7,41.4,363.1,41.3L363.1,41.3z M296.9,27.1h1.1c6.4,0,8-0.6,8.7-0.6v8.3
		c-0.5,0-2.4-0.8-8.6-0.8h-1.2v6.8c0,7.9,1.4,8.1,1.4,8.9h-15.7c0-0.8,1.3-1.4,1.3-8.7V18.2c0-7-1.3-7.9-1.3-8.7h26.7l1,8.1
		c-0.5,0-2.3-1.3-8.3-1.3h-5.2L296.9,27.1L296.9,27.1L296.9,27.1z M328,18.2v22.7c0,7.3,1.3,7.9,1.3,8.7h-15.5
		c0-0.8,1.3-1.4,1.3-8.7V18.2c0-7-1.3-7.9-1.3-8.7h15.5C329.3,10.3,328,11.2,328,18.2L328,18.2z M258.8,49.7
		c-15.9,0.1-19.6,8.8-39.8,8.8c-6.2-0.1-12.4-0.9-18.4-2.5c0-0.8,1.3-1.4,1.3-8.7V10.5c0-7.3-1.3-9.8-1.3-10.2h32.6l1.1,9
		c-0.4,0-3-1.3-9.9-1.3h-8.6v15.6h4.2c7.1,0,10.9-0.7,11.5-0.7v9.4h-0.3c-1.3-0.5-5.7-0.9-11-0.9h-4.3v15.6
		C233.1,51,240,44,254.6,44c0.4,0,0.7,0,1.1,0c1.6,2,3.3,3.9,5.2,5.7L258.8,49.7L258.8,49.7z M14.6,25.9V7.6H19c5.2,0,7.3,3,7.3,7.8
		c0,5.9-3.5,10.4-9,10.4L14.6,25.9L14.6,25.9z M62.8,8.4C50.3,8.4,41.7,16,41.7,27c0,15.9,16.9,18.2,22.8,13.1l-1-2.1
		c-5.1,1-9.8-2.9-9.8-11.6c0-7.1,3.7-11.5,8.9-11.5c6,0,9.7,6,9.7,14.7C72.3,39.5,66.6,47,56,47c-12.2,0-21.4-9.6-27-19.2
		c6.3-2.5,10-7.2,10-13.6C38.9,5.8,32.7,0,21.3,0H0c0,0.3,1.3,2.9,1.3,10.2v30.5C1.3,48,0,48.6,0,49.4h16c0-0.4-1.3-3-1.3-8.7
		c0-4.7,0-8.4,0-8.4h2c11.1,16.2,23.6,22.9,37.1,22.9c19.4,0,31-12.3,31-26C84.6,17.7,75.8,8.4,62.8,8.4L62.8,8.4L62.8,8.4z
		 M107.6,40.5c0,7.3,1.4,8.3,1.4,8.9H93.4v-0.2c1.6-2.7,1.3-5.4,1.3-8.6v-8.1l-9.7-18.3c-1-1.9-1.8-3.2-3.4-4.7V9.3h13.7l8.1,16.7
		l4.5-9.1c2.8-5.7,0.6-6.5,0.6-7.6h10.9c0,0.6-11.5,22.8-11.7,23.6V40.5L107.6,40.5z M128.5,33.2l3.7-11.2h0.1l3.9,11.2H128.5
		L128.5,33.2z M140.1,9.3h-13.3c0,1.3,1.9,0.7-0.7,8.6l-8.4,24.3c-1.1,3.1-1.3,4-3.4,7v0.2h11.1c0-1-2-1.3,0.3-8l0.6-1.7h12
		c0.5,1.3,1.8,4.4,1.7,6.5c0,1.7-0.6,2.7-0.6,3.2h16.1v-0.2c-1.7-2.2-2.5-4.6-4-8.5L140.1,9.3L140.1,9.3z"/>
</g>
</svg>
